<?xml version="1.0" encoding="UTF-8"?>
<!DOCTYPE svg PUBLIC "-//W3C//DTD SVG 1.1//EN" "http://www.w3.org/Graphics/SVG/1.1/DTD/svg11.dtd">
<!-- Creator: CorelDRAW X8 -->
<svg xmlns="http://www.w3.org/2000/svg" xml:space="preserve" width="1026px" height="316px" version="1.1" style="shape-rendering:geometricPrecision; text-rendering:geometricPrecision; image-rendering:optimizeQuality; fill-rule:evenodd; clip-rule:evenodd"
viewBox="0 0 162741 50149"
 xmlns:xlink="http://www.w3.org/1999/xlink">
 <defs>
  <style type="text/css">
   <![CDATA[
    .fil0 {fill:#007C40}
    .fil2 {fill:#841618}
    .fil1 {fill:#EA1D25}
   ]]>
  </style>
 </defs>
 <g id="Camada_x0020_1">
  <metadata id="CorelCorpID_0Corel-Layer"/>
  <g id="_1902086544128">
   <path class="fil0" d="M70635 38748c-22,-620 58,-1605 241,-2568l563 -2889c-378,-127 -963,-218 -1491,-218 -2418,0 -3840,2041 -3840,3967 0,1055 619,1833 1594,1833 791,0 1547,-413 2154,-1559l24 0c-69,572 -126,1101 -126,1434l881 0 0 0zm-583 -3164c-275,1478 -1216,2511 -2007,2511 -734,0 -952,-609 -952,-1227 13,-1537 1182,-3038 2615,-3038 320,0 526,45 664,80l-320 1674 0 0zm12467 2190c-288,137 -724,310 -1285,310 -905,0 -1376,-586 -1376,-1480 0,-1307 906,-2728 2350,-2728 412,0 722,103 941,206l274 -756c-172,-93 -642,-240 -1158,-240 -1994,0 -3392,1741 -3392,3633 0,1180 699,2143 2132,2143 744,0 1318,-195 1604,-332l-90 -756 0 0zm12248 974c-23,-620 57,-1605 239,-2568l562 -2889c-378,-127 -963,-218 -1490,-218 -2418,0 -3840,2041 -3840,3967 0,1055 620,1833 1594,1833 791,0 1547,-413 2155,-1559l22 0c-67,572 -125,1101 -125,1434l883 0 0 0zm-586 -3164c-275,1478 -1215,2511 -2005,2511 -734,0 -952,-609 -952,-1227 11,-1537 1181,-3038 2613,-3038 321,0 527,45 665,80l-321 1674 0 0zm13694 -4975l-494 2659c-241,-114 -630,-195 -986,-195 -1959,0 -3425,1811 -3425,3783 0,1134 583,2017 1661,2017 792,0 1491,-436 1994,-1226l24 0 -150 1101 871 0c34,-540 126,-1181 240,-1755l1216 -6384 -951 0 0 0zm-1021 5398c-241,1250 -1124,2088 -1857,2088 -815,0 -1043,-700 -1043,-1365 0,-1478 1032,-2890 2362,-2890 402,0 722,105 917,231l-379 1936 0 0zm12684 1709c-343,183 -837,390 -1490,390 -573,0 -1020,-253 -1239,-746 -126,-298 -160,-813 -114,-1054 2052,34 3692,-355 3692,-1811 0,-790 -574,-1422 -1629,-1422 -1787,0 -3026,1892 -3026,3566 0,1227 642,2223 2110,2223 745,0 1421,-195 1834,-435l-138 -711 0 0zm-69 -3187c0,859 -1169,1055 -2660,1043 231,-871 907,-1753 1812,-1753 504,0 848,252 848,710l0 0zm9062 4219l517 -2786c217,-1181 1076,-2098 1776,-2098 699,0 825,482 825,952 0,218 -23,436 -69,676l-619 3256 916 0 539 -2843c230,-1239 1043,-2041 1732,-2041 619,0 836,379 836,963 0,229 -33,516 -79,722l-596 3199 929 0 618 -3279c58,-310 92,-677 92,-940 0,-1043 -700,-1456 -1341,-1456 -837,12 -1547,436 -2040,1239 -47,-700 -447,-1239 -1296,-1239 -733,0 -1432,402 -1948,1170l-33 0 148 -1043 -837 0c-57,459 -137,997 -252,1616l-745 3932 927 0 0 0zm16019 0l1067 -5548 -953 0 -1064 5548 950 0 0 0zm837 -6500c367,0 631,-264 643,-642 0,-343 -218,-596 -562,-596 -344,0 -631,275 -631,642 0,344 219,596 550,596l0 0zm12134 6500c-23,-620 58,-1605 241,-2568l562 -2889c-379,-127 -963,-218 -1491,-218 -2419,0 -3839,2041 -3839,3967 0,1055 619,1833 1593,1833 790,0 1548,-413 2155,-1559l23 0c-69,572 -127,1101 -127,1434l883 0 0 0zm-584 -3164c-276,1478 -1215,2511 -2006,2511 -733,0 -951,-609 -951,-1227 11,-1537 1179,-3038 2613,-3038 320,0 527,45 664,80l-320 1674z"/>
   <path class="fil0" d="M77783 9365l-1087 5513c-540,-201 -1096,-278 -1476,-278 -4822,0 -7881,3945 -7881,8246 0,3211 1922,4754 3920,4754 1310,0 2797,-506 3885,-2099l51 0 -126 1820 3950 1c76,-1593 278,-3490 607,-5211l2428 -12746 -4271 0 0 0zm-29316 30348c9706,0 17042,-6829 17042,-17608 0,-6544 -4740,-11399 -12189,-11399 -10215,0 -17099,7731 -17099,17494 0,7224 5078,11513 12189,11513l57 0 0 0zm-48467 -1071c1920,393 5586,732 10328,732 6829,0 11907,-958 15236,-3103 3162,-2032 5475,-4910 5475,-9143 0,-3950 -2144,-6998 -5870,-8239l0 0c4008,-1242 7394,-4119 7394,-8973 0,-3555 -2258,-6152 -5136,-7393 -2766,-1354 -5699,-1750 -9706,-1750 -4006,0 -7901,396 -10778,960l-6943 36909 0 0zm15237 -30193c565,-169 1581,-225 2878,-225 2653,0 4628,1015 4628,3330 0,2709 -2539,4175 -6546,4175l-2371 0 1411 -7280 0 0zm-2878 14278l1974 0c3556,0 6491,790 6491,4175 0,3443 -3442,4967 -7338,4967 -1184,0 -2031,0 -2820,-114l1693 -9028 0 0zm37349 9706c-2257,0 -3498,-1694 -3498,-4402 0,-3386 1692,-10046 5868,-10046 2484,0 3443,1919 3443,4233 0,3950 -1806,10215 -5757,10215l-56 0 0 0zm25817 -11282c-456,2200 -1443,2984 -2248,2984 -733,0 -1437,-531 -1437,-2024 0,-1997 1211,-4248 3052,-4248 480,0 962,177 1213,380l-580 2908 0 0zm9056 6171l-4299 0 2351 -12444 4301 0 -2353 12444 0 0zm657 -13708c1290,0 2454,-834 2454,-2326 0,-1214 -886,-1998 -2075,-1998 -1264,0 -2402,935 -2402,2327 0,1238 859,1997 1997,1997l26 1 0 -1zm5306 13708l1012 -5311c505,-2580 1567,-3946 2605,-3946 707,0 935,480 935,1214 0,405 -51,886 -127,1291l-1264 6752 4300 0 1391 -7207c101,-583 202,-1569 202,-2125 0,-1973 -936,-3389 -3212,-3389 -1567,0 -3060,632 -4249,2200l-51 -1 203 -1922 -3794 0c-177,1165 -380,2581 -708,4250l-1543 8194 4300 0 0 0zm21184 0c-52,-1618 227,-4173 480,-5513l1340 -6525c-1113,-355 -2832,-683 -4430,-683 -6415,0 -9046,4426 -9046,8573 0,2706 1618,4426 3845,4426 1311,0 2850,-581 3912,-2428l76 0c-26,708 -77,1441 -127,2149l3950 1 0 0zm-3546 -6905c-531,2934 -1589,3718 -2373,3718 -733,0 -1235,-607 -1235,-1771 0,-1820 1336,-4526 3331,-4526 226,0 530,25 809,76l-532 2503 0 0zm-303 -10950l-3128 3945 2925 0 1366 -1846 50 0 966 1846 2706 0 -1973 -3945 -2912 0 0 0zm9335 17855l-4169 0 1518 -8194c303,-1669 505,-3086 656,-4250l3697 0 -176 1897 26 0c1137,-1542 2628,-2174 4192,-2174 2024,0 2859,1290 2959,2174 1114,-1516 2652,-2174 4144,-2174 2149,0 3060,1366 3060,3363 0,506 -100,1543 -226,2151l-1316 7207 -4173 0 1213 -6652c76,-480 152,-987 152,-1441 0,-683 -328,-1189 -936,-1189 -1086,0 -2047,1568 -2478,3971l-1011 5310 -4122 1 1238 -6652c77,-480 152,-961 152,-1366 0,-759 -252,-1264 -884,-1264 -1088,0 -2125,1593 -2554,3971l-962 5311 0 0zm20276 0l2352 -12444 -4299 0 -2352 12444 4299 0 0 0zm658 -13708c1290,0 2453,-834 2453,-2326 0,-1214 -885,-1998 -2073,-1998 -1265,0 -2403,935 -2403,2327 0,1238 859,1997 1997,1997l26 1 0 -1zm10490 10091l-50 3263c-860,405 -2099,608 -3490,608 -3011,0 -5438,-1771 -5438,-5236 0,-4452 3490,-7714 8320,-7714 1012,0 1871,152 2504,355l-1036 3287c-405,-152 -836,-227 -1493,-227 -2327,0 -3768,1796 -3768,3844 0,1593 1087,2251 2150,2251 986,-1 1669,-203 2301,-431l0 0zm12282 3617c-51,-1618 227,-4173 480,-5513l1341 -6525c-1112,-355 -2833,-683 -4430,-683 -6415,0 -9046,4426 -9046,8573 0,2706 1620,4426 3844,4426 1311,0 2850,-581 3912,-2428l75 0c-25,708 -75,1441 -126,2149l3950 1 0 0zm-3546 -6905c-530,2934 -1588,3718 -2373,3718 -733,0 -1235,-607 -1235,-1771 0,-1820 1337,-4526 3330,-4526 229,0 531,25 810,76l-532 2503z"/>
   <path class="fil1" d="M27693 20170l100 74 48 36 22 18 117 91 7 7c1562,1249 2569,2990 2916,5061l0 5 10 57c245,1436 162,2944 -237,4370 -2631,8439 -6448,14934 -9267,20198 1413,132 3750,124 5149,-741 4299,-5619 19729,-28921 16656,-35565 -3055,-6606 -16870,3255 -18045,5109l0 0c947,314 1789,746 2524,1280l0 0zm18036 -15296c0,2693 -2183,4872 -4873,4872 -2692,0 -4876,-2179 -4876,-4872 0,-2693 2184,-4874 4876,-4874 2690,0 4873,2181 4873,4874z"/>
   <path class="fil2" d="M27693 20170l100 74 48 36 22 18 117 91 7 7c1562,1249 2569,2990 2916,5061l0 5 10 57c245,1436 162,2944 -237,4370 -2631,8437 -6445,14931 -9265,20195 6050,-9042 15493,-25091 13029,-30421 -1470,-3179 -5420,-2467 -9270,-774l0 0c946,315 1788,747 2523,1281z"/>
   <path class="fil0" d="M1276 48931l571 0 162 -857 104 0c176,0 264,64 285,325 27,289 50,465 71,533l591 0c-44,-94 -64,-426 -94,-656 -24,-195 -79,-334 -203,-398l3 -14c294,-101 504,-297 504,-635 0,-237 -126,-388 -287,-473 -176,-97 -412,-118 -622,-118 -250,0 -500,24 -659,61l-426 2232 0 0zm997 -3327c625,0 1194,255 1606,666l1 2c411,411 665,979 665,1605 0,627 -254,1195 -665,1607 -412,411 -980,665 -1607,665 -626,0 -1194,-254 -1606,-665l-1 -1 0 0c-411,-412 -666,-981 -666,-1606 0,-627 255,-1196 666,-1607 412,-411 979,-666 1607,-666l0 0zm1156 1118c295,294 478,703 478,1155 0,451 -183,861 -480,1155 -295,296 -704,478 -1154,478 -452,0 -860,-182 -1156,-477l0 0c-297,-295 -478,-704 -478,-1156 0,-451 182,-859 478,-1155 296,-296 704,-479 1156,-479 452,0 860,183 1156,479l0 0zm-1234 382c34,-7 88,-14 169,-14 166,0 308,72 308,227 0,200 -176,327 -403,327l-179 0 105 -540z"/>
  </g>
 </g>
</svg>
